<svg width="24" height="22" viewBox="0 0 24 22" fill="none" xmlns="http://www.w3.org/2000/svg">
<path fill-rule="evenodd" clip-rule="evenodd" d="M18.256 4.37128C18.302 4.45169 18.3825 4.50913 18.486 4.50913C21.246 4.50913 23.5 6.76062 23.5 9.51756V16.341C23.5 19.0979 21.246 21.3494 18.486 21.3494H5.514C2.7425 21.3494 0.5 19.0979 0.5 16.341V9.51756C0.5 6.76062 2.7425 4.50913 5.514 4.50913C5.606 4.50913 5.698 4.46318 5.7325 4.37128L5.8015 4.23343C5.84114 4.14999 5.88184 4.06428 5.92314 3.97727C6.21734 3.3576 6.54282 2.67203 6.7445 2.26911C7.2735 1.23526 8.1705 0.660901 9.286 0.649414H14.7025C15.818 0.660901 16.7265 1.23526 17.2555 2.26911C17.4366 2.63094 17.7125 3.21377 17.9785 3.77552C18.0334 3.89148 18.0879 4.00653 18.141 4.11856L18.256 4.37128ZM17.4165 8.7823C17.4165 9.35666 17.8765 9.81615 18.4515 9.81615C19.0265 9.81615 19.498 9.35666 19.498 8.7823C19.498 8.20794 19.0265 7.73696 18.4515 7.73696C17.8765 7.73696 17.4165 8.20794 17.4165 8.7823ZM10.0106 10.5631C10.5511 10.0232 11.2526 9.73599 12.0001 9.73599C12.7476 9.73599 13.4491 10.0232 13.9781 10.5516C14.5071 11.08 14.7946 11.7807 14.7946 12.5274C14.7831 14.0667 13.5411 15.3188 12.0001 15.3188C11.2526 15.3188 10.5511 15.0316 10.0221 14.5032C9.49313 13.9748 9.20563 13.2741 9.20563 12.5274V12.5159C9.19413 11.7922 9.48163 11.0915 10.0106 10.5631ZM15.1855 15.7206C14.369 16.5362 13.242 17.0416 12 17.0416C10.7925 17.0416 9.6655 16.5707 8.803 15.7206C7.952 14.8591 7.4805 13.7333 7.4805 12.5272C7.469 11.3325 7.9405 10.2067 8.7915 9.34519C9.654 8.48365 10.7925 8.01267 12 8.01267C13.2075 8.01267 14.346 8.48365 15.197 9.3337C16.048 10.1952 16.5195 11.3325 16.5195 12.5272C16.508 13.7793 16.002 14.905 15.1855 15.7206Z" fill="white"/>
</svg>
