<svg width="25" height="24" viewBox="0 0 25 24" fill="none" xmlns="http://www.w3.org/2000/svg">
<path d="M9.63283 20.7733V17.7156C9.63283 16.9351 10.2702 16.3023 11.0565 16.3023H13.9307C14.3082 16.3023 14.6703 16.4512 14.9373 16.7163C15.2043 16.9813 15.3543 17.3408 15.3543 17.7156V20.7733C15.3519 21.0978 15.4801 21.4099 15.7104 21.6402C15.9407 21.8705 16.2541 22 16.581 22H18.5419C19.4577 22.0023 20.3368 21.6428 20.9852 21.0008C21.6336 20.3588 21.9981 19.487 21.998 18.5778V9.86686C21.998 9.13246 21.6701 8.43584 21.1027 7.96467L14.4321 2.67587C13.2717 1.74856 11.6092 1.7785 10.4834 2.74698L3.96506 7.96467C3.37079 8.42195 3.0156 9.12064 2.99805 9.86686V18.5689C2.99805 20.4639 4.54543 22 6.45422 22H8.37034C9.04927 22 9.60104 21.4562 9.60596 20.7822L9.63283 20.7733Z" fill="white"/>
</svg>
