<svg width="21" height="20" viewBox="0 0 21 20" fill="none" xmlns="http://www.w3.org/2000/svg">
<path d="M18.6624 10.7304C19.3274 10.0662 19.8346 9.26112 20.1465 8.37453C20.4584 7.48795 20.567 6.54258 20.4643 5.60837C20.3616 4.67415 20.0501 3.77498 19.553 2.97736C19.0559 2.17974 18.3858 1.50408 17.5924 1.00036C15.5824 -0.329643 12.8924 -0.339643 10.8624 0.970357C9.10238 2.10036 8.13238 3.86036 7.96238 5.68036C7.83238 7.00036 7.33238 8.23036 6.41238 9.15036L6.38238 9.18036C5.22238 10.3404 5.22238 12.1104 6.31238 13.1904L7.30238 14.1804C7.8263 14.7039 8.53668 14.998 9.27738 14.998C10.0181 14.998 10.7285 14.7039 11.2524 14.1804C12.2224 13.2104 13.5024 12.6804 14.8924 12.5304C16.2624 12.3804 17.6024 11.7804 18.6624 10.7304ZM4.76238 17.8604C5.03238 18.4204 4.94238 19.1004 4.47238 19.5604C4.26882 19.767 4.00938 19.9097 3.72588 19.971C3.44239 20.0323 3.14716 20.0096 2.87641 19.9055C2.60567 19.8015 2.37118 19.6206 2.20171 19.3853C2.03224 19.1499 1.93516 18.8701 1.92238 18.5804C1.63261 18.5676 1.35287 18.4705 1.11748 18.301C0.882084 18.1316 0.701273 17.8971 0.597222 17.6263C0.493171 17.3556 0.470404 17.0603 0.531716 16.7768C0.593027 16.4934 0.735749 16.2339 0.942376 16.0304C1.40238 15.5704 2.09238 15.4704 2.64238 15.7404L5.12238 13.3104C5.26238 13.5004 5.42238 13.7204 5.60238 13.9004L6.59238 14.8904C6.80238 15.0904 7.00238 15.2604 7.26238 15.4104L4.76238 17.8604Z" fill="#505050"/>
</svg>
