<svg width="25" height="24" viewBox="0 0 25 24" fill="none" xmlns="http://www.w3.org/2000/svg">
<mask id="mask0_830_14400" style="mask-type:alpha" maskUnits="userSpaceOnUse" x="0" y="0" width="25" height="24">
<rect x="0.498047" width="24" height="24" fill="#D9D9D9"/>
</mask>
<g mask="url(#mask0_830_14400)">
<path d="M12.498 22C11.1314 22 9.83971 21.7373 8.62305 21.212C7.40638 20.6873 6.34405 19.9707 5.43605 19.062C4.52738 18.154 3.81071 17.0917 3.28605 15.875C2.76071 14.6583 2.49805 13.3667 2.49805 12C2.49805 10.6167 2.76071 9.321 3.28605 8.113C3.81071 6.90433 4.52738 5.846 5.43605 4.938C6.34405 4.02933 7.40638 3.31233 8.62305 2.787C9.83971 2.26233 11.1314 2 12.498 2C13.8814 2 15.177 2.26233 16.385 2.787C17.5937 3.31233 18.652 4.02933 19.56 4.938C20.4687 5.846 21.1854 6.90433 21.71 8.113C22.2354 9.321 22.498 10.6167 22.498 12C22.498 13.3667 22.2354 14.6583 21.71 15.875C21.1854 17.0917 20.4687 18.154 19.56 19.062C18.652 19.9707 17.5937 20.6873 16.385 21.212C15.177 21.7373 13.8814 22 12.498 22ZM12.498 19.95C12.9314 19.35 13.3064 18.725 13.623 18.075C13.9397 17.425 14.198 16.7333 14.398 16H10.598C10.798 16.7333 11.0564 17.425 11.373 18.075C11.6897 18.725 12.0647 19.35 12.498 19.95ZM9.89805 19.55C9.59805 19 9.33571 18.429 9.11105 17.837C8.88571 17.2457 8.69805 16.6333 8.54805 16H5.59805C6.08138 16.8333 6.68538 17.5583 7.41005 18.175C8.13538 18.7917 8.96471 19.25 9.89805 19.55ZM15.098 19.55C16.0314 19.25 16.8604 18.7917 17.585 18.175C18.3104 17.5583 18.9147 16.8333 19.398 16H16.448C16.298 16.6333 16.1107 17.2457 15.886 17.837C15.6607 18.429 15.398 19 15.098 19.55ZM4.74805 14H8.14805C8.09805 13.6667 8.06038 13.3373 8.03505 13.012C8.01038 12.6873 7.99805 12.35 7.99805 12C7.99805 11.65 8.01038 11.3127 8.03505 10.988C8.06038 10.6627 8.09805 10.3333 8.14805 10H4.74805C4.66471 10.3333 4.60205 10.6627 4.56005 10.988C4.51871 11.3127 4.49805 11.65 4.49805 12C4.49805 12.35 4.51871 12.6873 4.56005 13.012C4.60205 13.3373 4.66471 13.6667 4.74805 14ZM10.148 14H14.848C14.898 13.6667 14.9357 13.3373 14.961 13.012C14.9857 12.6873 14.998 12.35 14.998 12C14.998 11.65 14.9857 11.3127 14.961 10.988C14.9357 10.6627 14.898 10.3333 14.848 10H10.148C10.098 10.3333 10.0607 10.6627 10.036 10.988C10.0107 11.3127 9.99805 11.65 9.99805 12C9.99805 12.35 10.0107 12.6873 10.036 13.012C10.0607 13.3373 10.098 13.6667 10.148 14ZM16.848 14H20.248C20.3314 13.6667 20.394 13.3373 20.436 13.012C20.4774 12.6873 20.498 12.35 20.498 12C20.498 11.65 20.4774 11.3127 20.436 10.988C20.394 10.6627 20.3314 10.3333 20.248 10H16.848C16.898 10.3333 16.9354 10.6627 16.96 10.988C16.9854 11.3127 16.998 11.65 16.998 12C16.998 12.35 16.9854 12.6873 16.96 13.012C16.9354 13.3373 16.898 13.6667 16.848 14ZM16.448 8H19.398C18.9147 7.16667 18.3104 6.44167 17.585 5.825C16.8604 5.20833 16.0314 4.75 15.098 4.45C15.398 5 15.6607 5.57067 15.886 6.162C16.1107 6.754 16.298 7.36667 16.448 8ZM10.598 8H14.398C14.198 7.26667 13.9397 6.575 13.623 5.925C13.3064 5.275 12.9314 4.65 12.498 4.05C12.0647 4.65 11.6897 5.275 11.373 5.925C11.0564 6.575 10.798 7.26667 10.598 8ZM5.59805 8H8.54805C8.69805 7.36667 8.88571 6.754 9.11105 6.162C9.33571 5.57067 9.59805 5 9.89805 4.45C8.96471 4.75 8.13538 5.20833 7.41005 5.825C6.68538 6.44167 6.08138 7.16667 5.59805 8Z" fill="#505050"/>
</g>
</svg>
